<?xml version="1.0" encoding="UTF-8" standalone="no"?>
<svg
   viewBox="0 0 524.35999 545.67999"
   height="545.67999"
   width="524.35999"
   xml:space="preserve"
   id="svg2"
   version="1.1"
   sodipodi:docname="1.svg"
   inkscape:version="1.1 (c68e22c387, 2021-05-23)"
   xmlns:inkscape="http://www.inkscape.org/namespaces/inkscape"
   xmlns:sodipodi="http://sodipodi.sourceforge.net/DTD/sodipodi-0.dtd"
   xmlns="http://www.w3.org/2000/svg"
   xmlns:svg="http://www.w3.org/2000/svg"
   xmlns:rdf="http://www.w3.org/1999/02/22-rdf-syntax-ns#"
   xmlns:cc="http://creativecommons.org/ns#"
   xmlns:dc="http://purl.org/dc/elements/1.1/"><sodipodi:namedview
     id="namedview2093"
     pagecolor="#ffffff"
     bordercolor="#666666"
     borderopacity="1.0"
     inkscape:pageshadow="2"
     inkscape:pageopacity="0.0"
     inkscape:pagecheckerboard="0"
     showgrid="false"
     inkscape:zoom="1.4825539"
     inkscape:cx="353.7814"
     inkscape:cy="199.99273"
     inkscape:window-width="1920"
     inkscape:window-height="1017"
     inkscape:window-x="1912"
     inkscape:window-y="-8"
     inkscape:window-maximized="1"
     inkscape:current-layer="g12" /><metadata
     id="metadata8"><rdf:RDF><cc:Work
         rdf:about=""><dc:format>image/svg+xml</dc:format><dc:type
           rdf:resource="http://purl.org/dc/dcmitype/StillImage" /></cc:Work></rdf:RDF></metadata><defs
     id="defs6"><clipPath
       id="clipPath106"
       clipPathUnits="userSpaceOnUse"><path
         id="path104"
         d="m 419.219,3590.86 -21.563,8.66 -5.144,11.68 24.75,-5.64 8.656,-8.48 -6.699,-6.22" /></clipPath><clipPath
       id="clipPath380"
       clipPathUnits="userSpaceOnUse"><path
         id="path378"
         d="m 3618.61,3675.64 c -2.31,0.34 -4.71,1.08 -7.21,2.25 l -64.73,23 -43.64,17.79 c -0.23,11.32 -0.68,22.47 -1.42,33.11 l 55.02,-39.99 61.98,-36.16" /></clipPath><clipPath
       id="clipPath1192"
       clipPathUnits="userSpaceOnUse"><path
         id="path1190"
         d="m 1433.41,1350.26 1.07,82.27 4.03,-6.8 c 0.73,-1.23 1.06,-2.89 0.94,-4.8 l -4.12,-69.56 -1.92,-1.11" /></clipPath></defs><g
     transform="matrix(1.3333333,0,0,-1.3333333,0,545.68)"
     id="g10"><g
       transform="scale(0.1)"
       id="g12"><path
         id="path446-0"
         style="fill:#b54825;fill-opacity:1;fill-rule:nonzero;stroke:none;stroke-width:3.16818"
         d="m 2660.2286,2314.4885 1.2356,-0.7286 18.4705,-10.6767 -7.8888,-13.6233 v -0.031 c 2.0277,-57.5658 29.6225,-86.6181 78.6977,-95.3305 l 20.1496,-11.659 -14.6686,-25.3771 -9.2828,5.3542 -22.019,-182.8675 -161.989,-116.7792 -20.1496,11.6273 -25.8208,184.7366 c 49.0752,65.3912 76.67,126.3155 78.6977,186.1941 0,24.3634 17.1082,53.9859 38.2082,66.1516 9.9482,5.7662 19.0092,6.5581 25.7891,3.2633 l 0.031,0.031 0.5386,-0.2852" /><path
         id="path448-5"
         style="fill:#f66232;fill-opacity:1;fill-rule:nonzero;stroke:none;stroke-width:3.16818"
         d="m 2654.0189,2299.8516 c 21.1002,12.1975 38.2084,2.3128 38.2084,-22.0506 1.9959,-57.5659 29.5908,-86.618 78.6659,-95.3622 l -25.789,-214.5176 -182.1704,-105.152 -25.789,184.7367 c 49.0434,65.3913 76.6384,126.3154 78.6659,186.194 0,24.3633 17.1082,53.9858 38.2082,66.1517" /><path
         id="path450-0"
         style="fill:#b54825;fill-opacity:1;fill-rule:nonzero;stroke:none;stroke-width:3.16818"
         d="m 2633.3308,2246.246 c 0,-13.1798 9.2511,-18.5023 20.6881,-11.9123 11.4056,6.5897 20.6567,22.6206 20.6567,35.8004 0,13.1795 -9.2511,18.5339 -20.6567,11.9123 -11.437,-6.5582 -20.6881,-22.6208 -20.6881,-35.8004" /><path
         id="path452-6"
         style="fill:#b54825;fill-opacity:1;fill-rule:nonzero;stroke:none;stroke-width:3.16818"
         d="m 2537.1448,2047.5059 5.6394,-173.1094 304.1137,-175.5807 -45.9386,196.3639 -263.8145,152.3262" /><path
         id="path454-4"
         style="fill:#e0592e;fill-opacity:1;fill-rule:nonzero;stroke:none;stroke-width:3.16818"
         d="m 2770.8932,2182.4388 c -94.3167,39.3806 -167.28,-31.1433 -233.7484,-134.9329 l 263.8145,-152.3262 c 78.5708,95.2673 156.73,157.8071 233.7484,134.9645 l -263.8145,152.2946" /><path
         id="path456-5"
         style="fill:#b54825;fill-opacity:1;fill-rule:nonzero;stroke:none;stroke-width:3.16818"
         d="m 2633.3308,2246.246 c 0,-13.1798 9.2511,-18.5023 20.6881,-11.9123 11.4056,6.5897 20.6567,22.6206 20.6567,35.8004 0,13.1795 -9.2511,18.5339 -20.6567,11.9123 -11.437,-6.5582 -20.6881,-22.6208 -20.6881,-35.8004" /><path
         id="path458-0"
         style="fill:#b54825;fill-opacity:1;fill-rule:nonzero;stroke:none;stroke-width:3.16818"
         d="m 2668.6244,2283.5038 -29.2424,-50.6275 283.9641,-163.9535 29.2424,50.6592 -283.9641,163.9218" /><path
         id="path460-2"
         style="fill:#b54825;fill-opacity:1;fill-rule:nonzero;stroke:none;stroke-width:3.16818"
         d="m 2944.1927,2150.5352 1.2356,-0.7287 18.4705,-10.6451 -7.8888,-13.6548 v 0 c 2.0277,-57.5659 29.6226,-86.6498 78.6977,-95.3624 l 20.1496,-11.6271 -14.6686,-25.4089 -9.2828,5.386 -22.0188,-182.8992 -161.9892,-116.7792 -20.1496,11.6274 -25.789,184.7365 c 49.0434,65.3913 76.6383,126.3154 78.6659,186.1941 0,24.3632 17.1082,53.9857 38.2082,66.1832 9.9482,5.7344 19.0092,6.5266 25.7891,3.2316 l 0.031,0.031 0.5386,-0.2852" /><path
         id="path462-1"
         style="fill:#f66232;fill-opacity:1;fill-rule:nonzero;stroke:none;stroke-width:3.16818"
         d="m 2937.9832,2135.9299 c 21.1,12.1659 38.2082,2.2811 38.2082,-22.0823 1.9959,-57.5658 29.5908,-86.6181 78.6659,-95.3305 l -25.8206,-214.5494 -182.1388,-105.1519 -25.789,184.7368 c 49.075,65.3912 76.67,126.3153 78.6659,186.1939 0,24.3634 17.1082,53.9859 38.2084,66.1834" /><path
         id="path464-2"
         style="fill:#b54825;fill-opacity:1;fill-rule:nonzero;stroke:none;stroke-width:3.16818"
         d="m 2917.2948,2082.3243 c 0,-13.2114 9.2512,-18.5339 20.6884,-11.9442 11.4054,6.5898 20.6565,22.6209 20.6565,35.8006 0,13.1796 -9.2511,18.5337 -20.6565,11.944 -11.4372,-6.5898 -20.6884,-22.6209 -20.6884,-35.8004" /><path
         id="path466-5"
         style="fill:#9d9d9c;fill-opacity:1;fill-rule:nonzero;stroke:none;stroke-width:3.16818"
         d="m 2679.808,2008.5373 -35.8638,-32.4106 v 16.2212 l 35.8638,16.1894" /><path
         id="path468-0"
         style="fill:#878787;fill-opacity:1;fill-rule:nonzero;stroke:none;stroke-width:3.16818"
         d="m 2674.7389,1968.9349 6.5265,-41.4397 -15.9044,39.2537 9.3779,2.186" /><path
         id="path470-9"
         style="fill:#878787;fill-opacity:1;fill-rule:nonzero;stroke:none;stroke-width:3.16818"
         d="m 2657.9791,1978.6614 6.4949,-41.4399 -15.9043,39.222 9.4094,2.2179" /><path
         id="path472-2"
         style="fill:#b2b2b2;fill-opacity:1;fill-rule:nonzero;stroke:none;stroke-width:3.16818"
         d="m 2664.474,1937.2215 16.7914,-9.7263 -15.9044,39.2537 -16.7913,9.6946 15.9043,-39.222" /><path
         id="path474-4"
         style="fill:#9d9d9c;fill-opacity:1;fill-rule:nonzero;stroke:none;stroke-width:3.16818"
         d="m 2708.4483,1991.6192 -35.8637,-32.4105 v 16.1893 l 35.8637,16.2212" /><path
         id="path476-5"
         style="fill:#c6c6c6;fill-opacity:1;fill-rule:nonzero;stroke:none;stroke-width:3.16818"
         d="m 2643.9442,1976.1267 28.6404,-16.918 v 16.1893 l -28.6404,16.9499 v -16.2212" /><path
         id="path478-6"
         style="fill:#ededed;fill-opacity:1;fill-rule:nonzero;stroke:none;stroke-width:3.16818"
         d="m 2672.5846,1975.398 35.8637,16.2212 -28.6403,16.9181 -35.8638,-16.1894 28.6404,-16.9499" /><path
         id="path480-1"
         style="fill:#ffbb7d;fill-opacity:1;fill-rule:nonzero;stroke:none;stroke-width:3.16818"
         d="m 1558.6837,2306.7266 c 5.4176,0.5069 11.437,0.7603 15.5557,-2.7564 4.2771,-3.6117 4.9107,-9.8846 5.1959,-15.4607 1.2356,-23.6347 2.471,-47.2376 3.7066,-70.8405 0.4119,-7.6987 0.6337,-16.0627 -3.7701,-22.3991 -4.6573,-6.7165 -13.2746,-9.3144 -21.2585,-11.152 -30.6363,-7.0016 -62.2864,-9.4412 -93.6198,-7.1918 -3.7383,31.7135 -7.4768,63.427 -11.1836,95.1723 -0.792,6.6214 -1.2673,14.225 3.39,19.009 3.3899,3.5167 8.6174,4.4354 13.4648,5.164 29.4007,4.3405 58.9281,7.8256 88.519,10.4552" /><path
         id="path482-8"
         style="fill:#b2b2b2;fill-opacity:1;fill-rule:nonzero;stroke:none;stroke-width:3.16818"
         d="m 1276.0185,2094.6485 h 204.8301 v 341.571 h -204.8301 z" /><path
         id="path484-7"
         style="fill:#b2b2b2;fill-opacity:1;fill-rule:nonzero;stroke:none;stroke-width:3.16818"
         d="m 1463.8283,2405.9539 c 47.1741,-27.2463 47.1741,-71.4108 0,-98.6571 -47.1742,-27.2147 -123.6542,-27.2147 -170.86,0 -47.1743,27.2463 -47.1743,71.4108 0,98.6571 47.2058,27.2465 123.6858,27.2465 170.86,0" /><path
         id="path486-6"
         style="fill:#b2b2b2;fill-opacity:1;fill-rule:nonzero;stroke:none;stroke-width:3.16818"
         d="m 1257.5796,2356.6253 h 241.6481 v 86.1349 h -241.6481 z" /><path
         id="path488-3"
         style="fill:#b2b2b2;fill-opacity:1;fill-rule:nonzero;stroke:none;stroke-width:3.16818"
         d="m 1480.8097,2094.7435 c 0,56.552 -45.8436,102.3957 -102.3956,102.3957 -56.5838,0 -102.4273,-45.8437 -102.4273,-102.3957 0,-56.5838 45.8435,-102.4272 102.4273,-102.4272 56.552,0 102.3956,45.8434 102.3956,102.4272" /><path
         id="path490-2"
         style="fill:#a0a0a0;fill-opacity:1;fill-rule:nonzero;stroke:none;stroke-width:3.16818"
         d="m 1378.3825,2236.0128 c -30.9216,0 -61.8113,6.8431 -85.3509,20.4664 -6.5264,3.8017 -12.1975,7.9205 -17.0131,12.3876 v 50.6909 c 4.7523,-4.3405 10.3917,-8.459 16.9498,-12.2609 23.6029,-13.5915 54.5243,-20.4348 85.4458,-20.4348 30.9214,0 61.8429,6.8433 85.4142,20.4348 6.5897,3.8335 12.2609,7.9521 17.0131,12.3242 v -50.5642 c -4.8156,-4.6571 -10.4866,-8.7759 -17.0131,-12.5776 -23.6347,-13.6233 -54.5561,-20.4664 -85.4458,-20.4664" /><path
         id="path492-6"
         style="fill:#a0a0a0;fill-opacity:1;fill-rule:nonzero;stroke:none;stroke-width:3.16818"
         d="m 1378.4141,2286.862 c -30.9215,0 -61.8429,6.8433 -85.4458,20.4348 -6.5581,3.8019 -12.1975,7.9204 -16.9498,12.2609 v 37.0676 h 204.8229 v -37.0043 0 c -4.7522,-4.3721 -10.4234,-8.4907 -17.0131,-12.3242 -23.5713,-13.5915 -54.4928,-20.4348 -85.4142,-20.4348" /><path
         id="path494-3"
         style="fill:#a0a0a0;fill-opacity:1;fill-rule:nonzero;stroke:none;stroke-width:3.16818"
         d="m 1276.0185,2356.6253 h 204.8301 v 35.2462 h -204.8301 z" /><path
         id="path496-9"
         style="fill:#b2b2b2;fill-opacity:1;fill-rule:nonzero;stroke:none;stroke-width:3.16818"
         d="m 1499.2168,2356.6571 v 86.1111 h -241.6372 v -86.1429 c 0,-17.8368 11.8174,-35.7053 35.3887,-49.3285 47.2058,-27.2147 123.6858,-27.2147 170.86,0 23.6028,13.6232 35.3885,31.4917 35.3885,49.3603" /><path
         id="path498-8"
         style="fill:#706f6f;fill-opacity:1;fill-rule:nonzero;stroke:none;stroke-width:3.16818"
         d="m 1463.8283,2492.0968 c 47.1741,-27.2463 47.1741,-71.4107 0,-98.6572 -47.1742,-27.2147 -123.6542,-27.2147 -170.86,0 -47.1743,27.2465 -47.1743,71.4109 0,98.6572 47.2058,27.2464 123.6858,27.2464 170.86,0" /><path
         id="path500-8"
         style="fill:#878787;fill-opacity:1;fill-rule:nonzero;stroke:none;stroke-width:3.16818"
         d="m 1187.0876,1673.7556 h -137.4357 v 851.1636 c 0,53.8908 22.5892,97.8334 61.9697,120.5809 39.412,22.7793 88.7724,20.3715 135.4396,-6.558 l 126.2205,-72.9 v 370.6457 H 1510.749 V 2555.904 c 0,-53.8908 -22.5892,-97.8335 -62.0014,-120.5493 -39.4121,-22.7792 -88.7407,-20.3398 -135.4396,6.5897 l -126.1886,72.8683 -0.031,-841.0571" /><path
         id="path502-1"
         style="fill:#878787;fill-opacity:1;fill-rule:nonzero;stroke:none;stroke-width:3.16818"
         d="m 1166.7479,1702.1108 c 26.8028,-15.4925 26.8028,-40.5527 0,-56.0134 -26.8029,-15.4925 -70.2069,-15.4925 -97.0097,0 -26.8028,15.4607 -26.8028,40.5209 0,56.0134 26.8028,15.4607 70.2068,15.4607 97.0097,0" /><path
         id="path504-7"
         style="fill:#ffbb7d;fill-opacity:1;fill-rule:nonzero;stroke:none;stroke-width:3.16818"
         d="m 1571.5464,2277.1357 c 12.1659,5.481 23.0644,18.1221 19.8328,31.1115 -2.2493,9.0294 -10.5816,15.2073 -19.0725,19.0725 -18.2803,8.3323 -38.9052,9.3462 -58.9597,10.1699 -7.0017,0.3168 -14.3202,0.5386 -20.5933,-2.5346 -6.8115,-3.2949 -11.2469,-9.9164 -16.2844,-15.524 -13.4964,-15.0806 -33.2976,-24.3634 -53.5106,-25.0604 -8.8709,-0.3168 -20.3397,-0.6969 -23.0643,-9.1243 -1.5841,-4.8474 1.1722,-10.3601 5.3541,-13.243 4.2138,-2.8831 9.5364,-3.6434 14.6688,-3.5484 14.5102,0.1902 28.2918,6.2096 42.6753,8.2689 36.3392,5.2275 75.4662,-14.7319 108.9538,0.4119" /><path
         id="path506-6"
         style="fill:#465c82;fill-opacity:1;fill-rule:nonzero;stroke:none;stroke-width:3.16818"
         d="m 2132.2828,2755.0875 -206.3435,-366.4001 -344.3814,-66.7853 c -30.066,-42.0418 -59.0867,-111.3616 -8.364,-151.3124 173.4897,-45.5584 297.4923,2.4713 449.3748,26.5495 108.0984,87.9486 208.5298,128.3112 289.7936,269.4854 l -180.0795,288.4629" /><path
         id="path508-3"
         style="fill:#ffbb7d;fill-opacity:1;fill-rule:nonzero;stroke:none;stroke-width:3.16818"
         d="m 1300.1917,2287.6541 c -6.6848,2.5661 -13.5598,-4.4037 -15.0806,-11.4056 -3.675,-17.0131 10.3601,-32.0935 17.8369,-47.8394 8.1105,-17.0765 2.5663,-41.2181 10.2332,-58.4846 13.5598,-30.5097 56.8371,-44.0061 89.0893,-35.4836 4.087,17.8368 28.2919,34.4065 24.3951,52.2749 -11.5639,-4.5622 -48.4733,6.1463 -55.5383,16.3479 -7.0651,10.2332 -11.1521,22.5574 -19.8012,31.4599 -12.8944,13.2114 -34.945,18.0904 -41.4397,35.3569 -2.4713,6.59 -3.1683,15.2707 -9.6947,17.7736" /><path
         id="path510-6"
         style="fill:#ffbb7d;fill-opacity:1;fill-rule:nonzero;stroke:none;stroke-width:3.16818"
         d="m 1275.9868,2055.0145 c 15.3657,-11.6905 47.9663,-24.9335 67.007,-21.9556 29.5592,4.6257 59.1183,9.2196 88.6775,13.845 10.1697,1.5841 21.5435,3.9286 27.1512,12.546 5.671,8.776 2.9782,20.3399 0.095,30.383 -5.671,19.7377 -11.3421,39.4754 -17.0131,59.2133 -2.0278,6.9699 -4.3721,14.4784 -10.265,18.7557 -8.5223,6.1779 -20.2763,2.978 -30.5411,0.6652 -45.9704,-10.3917 -91.6555,10.1382 -125.1116,43.309 -7.2235,-1.7108 -21.5437,-14.4152 -21.8605,-21.8287 -0.2852,-7.4135 7.1602,-16.538 5.7979,-23.8248 -1.8693,-9.8214 -11.1521,-18.914 -5.7979,-27.373 2.5663,-3.9919 5.1642,-9.1245 6.8116,-13.5915 1.0772,-2.9465 -1.2355,-8.0473 -3.3583,-15.7458 -2.8197,-10.4234 4.8474,-16.538 8.7442,-26.6445 4.784,-12.3242 -0.8554,-19.7696 9.663,-27.7533" /><path
         id="path512-4"
         style="fill:#cbcbcb;fill-opacity:1;fill-rule:nonzero;stroke:none;stroke-width:3.16818"
         d="m 1984.3605,3267.1608 c 0,-215.5949 -329.8077,-521.7996 -650.7446,-395.3574 -175.8656,71.2524 -267.8379,146.2432 -308.4224,349.6404 v 91.2436 h 959.167 v -45.5266" /><path
         id="path514-9"
         style="fill:#cbcbcb;fill-opacity:1;fill-rule:nonzero;stroke:none;stroke-width:3.16818"
         d="m 803.10397,3290.4468 621.18543,-358.6381 v 41.3447 l -621.18543,358.6065 v -41.3131" /><path
         id="path516-6"
         style="fill:#8f8f8f;fill-opacity:1;fill-rule:nonzero;stroke:none;stroke-width:3.16818"
         d="m 1424.2894,2973.1534 774.842,447.3156 v -41.313 l -774.842,-447.3473 v 41.3447" /><path
         id="path518-0"
         style="fill:#fbfbfb;fill-opacity:1;fill-rule:nonzero;stroke:none;stroke-width:3.16818"
         d="m 1424.2894,2973.1534 774.8104,447.3473 -621.1537,358.6382 -774.8105,-447.3472 621.1538,-358.6383" /><path
         id="path520-5"
         style="fill:#acacac;fill-opacity:1;fill-rule:nonzero;stroke:none;stroke-width:3.16818"
         d="m 1128.5079,3245.1736 79.0145,-45.6852 128.6282,-74.294 c 67.0069,-38.6517 175.7074,-38.6517 242.841,0 l 287.8927,166.2663 79.0145,45.6535 c 67.0069,38.6835 67.0069,101.4134 0,140.2236 l -207.6744,119.8206 c -67.1336,38.6835 -175.834,38.6835 -242.9679,0 l -366.7486,-211.7929 c -67.1655,-38.8102 -67.1655,-101.5401 0,-140.1919" /><path
         id="path522-1"
         style="fill:#ebebeb;fill-opacity:1;fill-rule:nonzero;stroke:none;stroke-width:3.16818"
         d="m 1207.5224,3199.4884 128.6282,-74.294 c 67.0069,-38.6517 175.7074,-38.6517 242.841,0 l 287.8927,166.2663 -128.6599,74.2938 c -67.1336,38.6519 -175.834,38.6519 -242.9679,0 l -287.7341,-166.2661" /><path
         id="path524-2"
         style="fill:#cbcbcb;fill-opacity:1;fill-rule:nonzero;stroke:none;stroke-width:3.16818"
         d="m 1214.6191,3552.804 c -23.6346,-13.6549 -23.6346,-35.8004 0,-49.4553 23.6663,-13.6549 62.033,-13.6549 85.6677,0 23.6663,13.6549 23.6663,35.8004 0,49.4553 -23.6347,13.6548 -62.0014,13.6548 -85.6677,0" /><path
         id="path526-5"
         style="fill:#cbcbcb;fill-opacity:1;fill-rule:nonzero;stroke:none;stroke-width:3.16818"
         d="m 1196.8773,3528.0605 h 121.1513 v 150.1718 h -121.1513 v -150.1718" /><path
         id="path528-5"
         style="fill:#e52205;fill-opacity:1;fill-rule:nonzero;stroke:none;stroke-width:3.16818"
         d="m 1197.606,3686.2478 c 1.6474,-7.3184 7.2868,-14.1618 17.0449,-19.8011 23.6029,-13.6865 61.9696,-13.6865 85.6991,0 v -9.5996 c 13.8767,8.0788 19.6429,19.0407 17.0449,29.4007 -1.6474,7.2869 -7.4453,14.4468 -17.0449,20.0862 -23.7295,13.6867 -62.0962,13.6867 -85.6991,0 -9.7581,-5.6394 -15.3975,-12.7993 -17.0449,-20.0862" /><path
         id="path530-9"
         style="fill:#cbcbcb;fill-opacity:1;fill-rule:nonzero;stroke:none;stroke-width:3.16818"
         d="m 1197.606,3686.2478 c 1.6474,-7.3184 7.2868,-14.1618 17.0449,-19.8011 23.6029,-13.6865 61.9696,-13.6865 85.6991,0 9.5996,5.6393 15.3975,12.4827 17.0449,19.8011 2.598,10.4866 -3.0414,21.4485 -17.0449,29.5274 -23.7295,13.6865 -62.0962,13.6865 -85.6991,0 -14.0035,-8.0789 -19.6429,-19.0408 -17.0449,-29.5274" /><path
         id="path532-8"
         style="fill:#cbcbcb;fill-opacity:1;fill-rule:nonzero;stroke:none;stroke-width:3.16818"
         d="m 1214.6191,3797.1975 c -23.6346,-13.6548 -23.6346,-35.8005 0,-49.4554 23.6663,-13.6547 62.033,-13.6547 85.6677,0 23.6663,13.6549 23.6663,35.8006 0,49.4554 -23.6347,13.6549 -62.0014,13.6549 -85.6677,0" /><path
         id="path534-0"
         style="fill:#cbcbcb;fill-opacity:1;fill-rule:nonzero;stroke:none;stroke-width:3.16818"
         d="m 1196.8773,3770.3629 h 120.9928 v -76.7332 h -120.9928 v 76.7332" /><path
         id="path536-2"
         style="fill:#ebebeb;fill-opacity:1;fill-rule:nonzero;stroke:none;stroke-width:3.16818"
         d="m 1317.7118,3647.3108 230.1367,-101.1917 c 10.8984,-4.784 21.6386,-17.9319 29.5274,-36.149 7.8888,-18.2169 12.2609,-39.824 11.8807,-59.3717 l -0.031,-1.3623 -50.7543,-27.7216 c 0,6.7165 -24.4585,36.4024 -27.2463,42.4853 -2.7565,6.083 -1.7742,28.0702 -5.4811,29.4958 l -188.0315,94.7919 -50.786,27.9118 50.786,31.1115" /><path
         id="path538-8"
         style="fill:#8f8f8f;fill-opacity:1;fill-rule:nonzero;stroke:none;stroke-width:3.16818"
         d="m 1266.9258,3618.2268 230.1049,-101.1916 c 10.8987,-4.784 21.6388,-17.9319 29.5276,-36.149 7.9205,-18.2169 12.2608,-39.8239 11.9123,-59.3717 l -0.031,-1.3623 -39.0953,22.5574 c 0,6.7167 -1.5843,14.0351 -4.3405,20.118 -2.7881,6.1146 -6.4631,10.3917 -10.17,11.8174 l -217.9074,84.5586 v 59.0232" /><path
         id="path540-4"
         style="fill:#3f3e3e;fill-opacity:1;fill-rule:nonzero;stroke:none;stroke-width:3.16818"
         d="m 1444.9775,3307.2066 c -29.9709,-17.2983 -29.9709,-45.3368 0,-62.635 29.9393,-17.33 78.5392,-17.33 108.5103,0 29.971,17.2982 29.971,45.3367 0,62.635 -29.9711,17.2983 -78.571,17.2983 -108.5103,0" /><path
         id="path542-2"
         style="fill:#151515;fill-opacity:1;fill-rule:nonzero;stroke:none;stroke-width:3.16818"
         d="m 1510.6223,3275.905 36.7827,21.2267 c 16.6328,-12.546 16.6328,-29.9393 0,-42.4853 l -36.7827,21.2586" /><path
         id="path544-6"
         style="fill:#151515;fill-opacity:1;fill-rule:nonzero;stroke:none;stroke-width:3.16818"
         d="m 1499.2168,3282.4631 -36.7825,21.2584 c 21.7337,9.5679 51.8315,9.5679 73.5967,0 l -36.8142,-21.2584" /><path
         id="path546-8"
         style="fill:#151515;fill-opacity:1;fill-rule:nonzero;stroke:none;stroke-width:3.16818"
         d="m 1499.2168,3269.3152 36.8142,-21.2585 c -21.7652,-9.5996 -51.863,-9.5996 -73.5967,0 l 36.7825,21.2585" /><path
         id="path548-7"
         style="fill:#151515;fill-opacity:1;fill-rule:nonzero;stroke:none;stroke-width:3.16818"
         d="m 1487.8114,3275.905 -36.7826,-21.2586 c -16.6329,12.546 -16.6329,29.9393 0,42.4853 l 36.7826,-21.2267" /><path
         id="path550-1"
         style="fill:#ebebeb;fill-opacity:1;fill-rule:nonzero;stroke:none;stroke-width:3.16818"
         d="m 1309.0626,3739.5048 150.8371,-8.2372 c 3.7702,-0.2218 6.2097,2.7247 6.2097,7.5085 0,5.5127 -2.2495,12.0076 -6.0829,17.4885 -3.8019,5.5126 -8.7442,9.3462 -13.3064,10.4233 l -166.5197,38.6201 v -18.5972 c 17.4568,-10.9303 27.9434,-28.5454 28.8622,-47.206" /><path
         id="path552-1"
         style="fill:#ebebeb;fill-opacity:1;fill-rule:nonzero;stroke:none;stroke-width:3.16818"
         d="m 1430.8792,3713.6526 34.2481,20.7832 -184.9269,70.8722 -32.9491,-19.0091 183.6279,-72.6463" /><path
         id="path554-0"
         style="fill:#8f8f8f;fill-opacity:1;fill-rule:nonzero;stroke:none;stroke-width:3.16818"
         d="m 1276.1135,3720.4958 150.8371,-8.2689 c 3.7702,-0.1901 6.2097,2.7562 6.2097,7.5402 0,5.5127 -2.2495,11.9758 -6.0829,17.4884 -3.8019,5.4809 -8.7442,9.3462 -13.338,10.4233 l -166.4881,38.6201 v -18.5971 c 17.4568,-10.9303 27.9434,-28.5454 28.8622,-47.206" /><path
         id="path556-3"
         style="fill:#1282d7;fill-opacity:1;fill-rule:nonzero;stroke:none;stroke-width:3.16818"
         d="m 1214.6509,3656.8471 c 23.6029,-13.6865 61.9696,-13.6865 85.6991,0 v 9.5996 c -23.7295,-13.6865 -62.0962,-13.6865 -85.6991,0 -9.7581,5.6393 -15.3975,12.4827 -17.0449,19.8011 -2.598,-10.36 3.1681,-21.3219 17.0449,-29.4007" /><path
         id="path558-5"
         style="fill:#1e2e4d;fill-opacity:1;fill-rule:nonzero;stroke:none;stroke-width:3.16818"
         d="m 2004.6052,1543.2581 c 190.5344,-98.4987 401.5986,-133.8239 619.1576,-156.3497 116.3673,0 124.3196,249.0507 64.5359,269.3588 l -192.4353,59.3084 -527.2171,-137.3407 c 9.4094,-12.7044 21.3536,-24.3634 35.9589,-34.9768" /><path
         id="path560-0"
         style="fill:#000000;fill-opacity:1;fill-rule:nonzero;stroke:none;stroke-width:3.16818"
         d="m 2638.6849,1605.0061 130.6876,-7.0651 83.1331,5.2909 c 71.1573,-8.8076 78.5708,-182.6774 61.6844,-340.833 l -130.6875,-82.0876 c -44.5129,2.3762 -55.6649,5.5443 -89.1842,30.8897 -14.1302,24.7435 -12.5143,52.1801 32.6639,90.0715 l -8.8075,90.9268 -89.3744,16.7914 c -60.7341,22.9692 -57.2174,164.2385 9.8846,196.0154" /><path
         id="path562-0"
         style="fill:#29406a;fill-opacity:1;fill-rule:nonzero;stroke:none;stroke-width:3.16818"
         d="m 2621.4184,1720.6764 c -79.7431,-80.4085 -393.995,-211.001 -393.995,-211.001 l 194.8431,-59.9419 c 19.0725,-6.5265 31.27,-36.5925 35.2302,-74.389 8.4274,-80.0916 -20.6249,-195.0332 -99.6394,-195.0332 -217.7173,22.5258 -428.6866,57.7242 -619.221,156.3497 -66.1516,47.9347 -80.5986,116.494 -28.3553,211.8564 118.0148,125.7767 284.186,241.2253 469.2078,352.7454 0,0 460.1784,187.0811 460.0199,166.9631 0,-2.7564 26.3909,-52.3702 28.1335,-59.7519 l 0.159,-0.1901 c 11.6905,-48.2831 51.0393,-188.982 -46.3822,-287.6075" /><path
         id="path564-6"
         style="fill:#29406a;fill-opacity:1;fill-rule:nonzero;stroke:none;stroke-width:3.16818"
         d="m 2639.4136,2068.1625 c -35.737,-100.7166 -216.7668,-184.198 -334.3064,-223.7053 -5.8929,-1.4892 -11.5638,-3.3582 -16.8231,-4.6256 -38.2398,-10.7402 -70.8405,-11.1521 -89.9764,2.0909 -3.1365,1.6793 -5.671,3.9921 -7.9837,6.3048 -44.1646,43.9426 -120.8979,197.8529 -191.9602,350.2742 -14.0983,30.2877 -27.975,60.5756 -41.218,90.008 l -16.6012,-13.6865 c -25.8524,56.552 -52.972,97.58 -75.276,139.6217 -28.1651,53.3839 -3.7701,118.3633 32.8222,181.6318 4.1822,6.9384 8.3958,13.8768 12.6094,20.815 30.8899,49.4236 59.6886,80.3133 83.2599,112.0586 52.5601,37.638 173.0144,94.4118 173.0144,94.4118 0,0 51.3245,8.8392 96.7245,16.4111 23.3495,3.5483 45.4001,7.1285 57.8194,9.0294 146.1165,-30.066 170.2897,-333.6729 280.891,-650.0792 9.4727,-21.0368 45.6217,-105.342 37.0042,-130.5607" /><path
         id="path566-6"
         style="fill:#253552;fill-opacity:1;fill-rule:nonzero;stroke:none;stroke-width:3.16818"
         d="m 2463.9282,1895.56 c 0.4118,5.5126 0.6969,10.9935 0.8554,16.5061 7.35,3.8336 14.6685,7.8254 21.8921,11.8807 -8.0472,-9.0926 -15.6508,-18.5655 -22.7475,-28.3868" /><path
         id="path568-6"
         style="fill:#253552;fill-opacity:1;fill-rule:nonzero;stroke:none;stroke-width:3.16818"
         d="m 2464.7836,1912.0661 c 1.9324,71.0306 -17.7736,141.3326 -39.0638,209.4168 -48.1564,154.0688 -105.2786,305.3177 -170.955,452.7332 131.7646,-178.0519 159.6447,-418.7702 300.1218,-590.0421 -25.092,-17.1716 -48.0297,-37.448 -68.2109,-60.2272 -7.2236,-4.0553 -14.5421,-8.0471 -21.8921,-11.8807" /><path
         id="path570-6"
         style="fill:#516a96;fill-opacity:1;fill-rule:nonzero;stroke:none;stroke-width:3.16818"
         d="M 2367.1401,2722.0434 2101.805,2527.7705 c -53.4155,112.2487 -125.7136,125.7135 -203.7142,68.306 4.1822,6.9384 8.3958,13.8768 12.6094,20.815 30.8899,49.4236 59.6886,80.3133 83.2599,112.0586 52.5601,37.638 173.0144,94.4118 173.0144,94.4118 0,0 51.3245,8.8392 96.7245,16.4111 49.8355,-25.2504 89.9763,-68.1159 103.4411,-117.7296" /><path
         id="path572-6"
         style="fill:#ffbb7d;fill-opacity:1;fill-rule:nonzero;stroke:none;stroke-width:3.16818"
         d="m 2011.2266,2980.1552 c 12.7362,-24.9335 25.5039,-50.0256 33.7412,-76.7968 8.2373,-26.7393 11.8173,-55.4748 5.7344,-82.7846 -6.875,-30.7312 -26.4544,-58.1676 -52.6868,-75.4343 -8.2056,-5.481 -17.0765,-9.9164 -26.4227,-13.0847 -9.3144,-3.1997 -19.2308,-5.2907 -29.0205,-4.2452 -15.3024,1.584 -28.577,10.3599 -40.3627,20.6249 l -0.031,0.095 -7.6671,6.9701 c -57.2174,54.556 -100.5263,122.2918 -135.8516,193.0372 -5.1957,10.4868 -10.3283,21.2269 -12.7677,32.7274 -7.1918,33.9313 11.1204,69.7317 38.7786,90.7367 27.6581,21.0051 62.9516,29.4325 97.5482,32.3789 9.5363,0.7919 19.2309,1.2356 28.5137,-1.0455 8.8075,-2.1861 16.8864,-6.6849 25.5038,-9.568 10.6769,-3.5167 55.8235,-76.163 74.9908,-113.6109" /><path
         id="path574-3"
         style="fill:#e8ab73;fill-opacity:1;fill-rule:nonzero;stroke:none;stroke-width:3.16818"
         d="m 1947.7996,2727.5244 c -1.7425,0 -3.4849,0.095 -5.2274,0.2852 -15.3024,1.584 -28.577,10.3599 -40.3627,20.6249 l -0.031,0.095 c 5.2908,-1.3305 10.0431,-1.9641 14.1935,-1.9641 30.066,0 29.559,34.5014 -3.9921,105.5003 25.7573,-33.2975 36.4975,-10.6132 57.6609,-46.984 8.5225,-14.5421 16.6331,-29.3375 24.7119,-44.1327 1.7425,-3.1683 3.5483,-6.4949 3.8969,-10.1066 l -0.6336,-5.7027 v 0 c -8.2056,-5.4811 -17.0765,-9.9164 -26.4227,-13.0847 -7.6669,-2.6296 -15.7141,-4.5304 -23.793,-4.5304" /><path
         id="path576-4"
         style="fill:#ffbb7d;fill-opacity:1;fill-rule:nonzero;stroke:none;stroke-width:3.16818"
         d="m 2043.5739,3015.6072 -169.1176,-98.182 127.1075,-218.858 161.6722,110.9815 -119.6621,206.0585" /><path
         id="path578-4"
         style="fill:#ffbb7d;fill-opacity:1;fill-rule:nonzero;stroke:none;stroke-width:3.16818"
         d="m 2122.6832,2823.2668 c 44.1962,0.095 53.3207,-12.9262 31.3017,-51.2611 -22.0189,-38.3667 -56.8372,-58.6747 -116.0188,-76.4483 -42.3269,-12.7361 -57.1857,19.7379 -35.1985,58.0727 22.0188,38.3351 75.6879,69.51 119.9156,69.6367" /><path
         id="path580-9"
         style="fill:#000000;fill-opacity:1;fill-rule:nonzero;stroke:none;stroke-width:3.16818"
         d="m 1857.2847,2877.4428 c 16.2528,-38.9053 43.9744,-0.2218 63.6489,-27.088 77.0818,-105.2153 215.848,0.4435 205.7099,50.0256 -68.3376,334.8768 -258.9671,248.0052 -283.5206,234.7939 -83.4182,-44.9881 -163.3197,-136.3268 -88.8991,-179.8259 81.0421,43.5623 83.1331,-30.2561 103.0609,-77.9056" /><path
         id="path582-2"
         style="fill:#ffbb7d;fill-opacity:1;fill-rule:nonzero;stroke:none;stroke-width:3.16818"
         d="m 1881.553,2921.5439 c -9.1561,-5.6712 -10.9937,-18.0904 -9.061,-27.9117 2.4712,-12.2926 8.9976,-23.0327 15.3974,-33.5195 8.2055,-13.3697 16.823,-27.1829 30.4144,-35.23 3.6435,-2.1545 7.8889,-3.897 12.3242,-3.1365 6.6533,1.1404 11.6274,7.7936 12.7995,14.2885 1.1406,6.5263 -0.6968,12.8944 -2.7246,18.914 -5.8927,17.3615 -13.6548,34.0262 -23.1277,49.5503 -3.7701,6.2413 -8.0156,12.451 -14.2567,16.3162 -6.2414,3.8652 -14.9856,4.9107 -21.7655,0.7287" /><path
         id="path584-3"
         style="fill:#000000;fill-opacity:1;fill-rule:nonzero;stroke:none;stroke-width:3.16818"
         d="m 2369.0411,1423.1525 130.6875,-7.0651 83.133,5.2909 c 71.1573,-8.8077 78.571,-182.6774 61.6846,-340.8014 l -130.6876,-82.11923 c -44.5128,2.37623 -55.6648,5.57593 -89.1843,30.88973 -14.13,24.7435 -12.5143,52.1801 32.6639,90.0715 l -8.8074,90.9584 -89.3744,16.7597 c -60.7342,22.9693 -57.2174,164.2386 9.8847,196.0155" /><path
         id="path586-5"
         style="fill:#263756;fill-opacity:1;fill-rule:nonzero;stroke:none;stroke-width:3.16818"
         d="m 2314.8968,1343.1875 c -52.0532,105.1519 -212.7116,143.9939 -386.9299,160.31 268.7251,47.4277 430.3974,143.6454 388.1339,317.8636 44.2278,-38.145 89.406,-54.1442 131.923,-54.1442 118.9653,0 217.5908,125.1748 219.6184,241.2571 l 0.159,-0.1901 c 5.6709,-23.3812 17.805,-68.4327 17.7734,-119.9157 -0.031,-28.2918 -3.7385,-58.5481 -14.2569,-88.1706 -9.8529,-27.7532 -25.6304,-54.9361 -49.8987,-79.5212 -79.7432,-80.4085 -393.9951,-211.001 -393.9951,-211.001 v 0 0 l 194.8431,-59.9419 c 10.8036,-3.7068 19.3893,-14.9223 25.5356,-30.8264 l -78.761,4.2454 c -27.6583,-13.0847 -44.5129,-44.7982 -50.5325,-79.1412 l -3.6118,-0.8238" /><path
         id="path588-3"
         style="fill:#070707;fill-opacity:1;fill-rule:nonzero;stroke:none;stroke-width:3.16818"
         d="m 2318.5086,1344.0113 c 6.0196,34.343 22.8742,66.0565 50.5325,79.1412 l 78.761,-4.2454 c 4.7205,-12.1976 7.9839,-27.1513 9.6946,-43.5626 l -138.9881,-31.3332" /><path
         id="path590-6"
         style="fill:#516a96;fill-opacity:1;fill-rule:nonzero;stroke:none;stroke-width:3.16818"
         d="m 1860.2629,2512.5315 -68.211,-276.5187 -359.3986,-43.3408 c -30.0977,-42.0417 -44.0693,-134.8062 6.6533,-174.7569 173.4896,-45.5585 305.6344,-49.677 457.5488,-25.5988 108.0666,87.9486 157.4268,210.177 170.6698,372.5147 16.4429,201.1795 -155.8746,228.3309 -207.2623,147.7005" /><path
         id="path592-3"
         style="fill:#29406a;fill-opacity:1;fill-rule:nonzero;stroke:none;stroke-width:3.16818"
         d="m 1591.601,1572.944 c 0.1261,-6.7165 -0.159,-13.5598 -0.6969,-20.6881 l -1.1089,-1.5525 v -0.1261 l -3.8018,-5.291 c -5.0057,-6.8433 -10.2016,-13.1479 -15.651,-19.1675 -8.3639,-9.061 -17.2981,-17.1716 -26.8028,-24.2999 -3.2315,-2.3762 -6.4313,-4.6255 -9.7895,-6.7165 l -1.6793,-1.1089 -4.3403,-2.6614 -3.7701,-2.091 -0.6971,-0.4119 c -3.073,-1.8374 -6.2729,-3.5165 -9.6312,-4.9106 -3.0732,-1.5206 -6.1462,-2.9148 -9.2195,-4.182 h -0.159 l -0.8237,-0.4119 -4.9107,-1.9643 -5.0057,-1.8374 -2.5347,-0.8238 -0.8236,-0.2851 -5.1642,-1.6792 -5.4492,-1.5206 -3.3582,-0.8237 h -0.1591 c -4.3086,-1.1406 -8.9343,-2.1228 -13.5598,-2.9466 l -2.6295,-0.4118 c -2.8197,-0.4435 -5.6077,-0.8554 -8.5225,-1.2673 h -0.982 c -18.7241,11.754 -36.9094,22.3675 -54.6512,31.5868 -38.4301,20.118 -74.6107,34.0896 -108.0033,40.5211 l -0.9822,0.1262 c -5.6076,0.982 -11.057,1.8058 -16.5062,2.3762 l 3.6434,46.6672 2.5029,32.0303 c 1.3939,17.7419 9.948,34.3748 24.0465,45.2416 73.9136,57.3125 154.0054,65.1379 241.4787,14.7004 33.6778,-26.0107 49.0436,-61.9062 49.7405,-106.0707" /><path
         id="path594-5"
         style="fill:#516a96;fill-opacity:1;fill-rule:nonzero;stroke:none;stroke-width:3.16818"
         d="m 1523.2633,1488.8287 c 0,0 -81.1371,-53.6689 -121.5313,-84.527 -17.1716,-13.3064 -47.903,-21.6703 -68.7497,-5.1958 l -3.8968,2.9464 c -15.6508,11.3105 -39.127,22.4941 -64.4092,30.1928 l -2.1226,0.6971 c -18.027,5.2907 -36.751,8.9341 -53.9224,9.346 -15.1123,0.5704 -29.0839,-1.3939 -40.236,-6.4315 l -2.3761,4.7524 c 13.6865,14.1302 52.465,48.7584 64.7576,61.7794 18.8824,20.0864 34.5015,34.9769 39.4122,37.9867 79.8382,48.7582 208.3396,-56.2986 253.0743,-51.5465" /></g></g></svg>
